# xmcd
#
# Track frame offsets: 
#        150
#        18614
#        32020
#        48925
#        71121
#        85065
#        101309
#        120077
#        155499
#        170207
#        181596
#        200049
#
# Disc length: 2964 seconds
#
# Revision: 0
# Processed by: cddbd v1.4PL0 Copyright (c) Steve Scherf et al.
# Submitted via: ExactAudioCopy v0.90b4
#
DISCID=950b920c
DTITLE=The Bootleggers - No Irish No Blacks No Dogs
DYEAR=2001
DGENRE=Blues
TTITLE0=Out of my mind
TTITLE1=You're free
TTITLE2=Tumbling down
TTITLE3=Eternity bound
TTITLE4=Always be a sinner
TTITLE5=One day
TTITLE6=No Irish, no Blacks, no dogs
TTITLE7=Aigis Blues
TTITLE8=No need
TTITLE9=Nearly just had it blues
TTITLE10=Crouched in the corner
TTITLE11=How many times
EXTD=
EXTT0=
EXTT1=
EXTT2=
EXTT3=
EXTT4=
EXTT5=
EXTT6=
EXTT7=
EXTT8=
EXTT9=
EXTT10=
EXTT11=
PLAYORDER=
